<svg width="441" height="414" viewBox="0 0 441 414" fill="none" xmlns="http://www.w3.org/2000/svg">
<path d="M125.248 72.8549C125.573 89.5032 132.79 105.385 145.382 117.163C154.98 125.379 167.461 130.033 180.473 130.248C184.703 130.099 188.706 128.425 191.643 125.576C197.964 119.292 202.434 111.584 204.616 103.203C206.798 94.8222 206.618 86.0558 204.093 77.7596C194.649 47.1845 168.503 30.3091 136.489 15.5952C128.265 33.6717 124.426 53.2266 125.248 72.8549Z" fill="url(#paint0_linear_61_26)"/>
<path d="M77.7957 117.279C84.9049 132.547 98.0987 144.624 114.577 150.947C126.796 155.103 140.242 154.921 152.319 150.432C156.168 148.782 159.183 145.803 160.731 142.119C164.018 134.063 165.015 125.349 163.625 116.825C162.235 108.302 158.505 100.262 152.799 93.4877C131.509 68.5488 100.526 62.3639 64.9187 60.3522C64.6638 79.9838 69.0614 99.4247 77.7957 117.279Z" fill="url(#paint1_linear_61_26)"/>
<path d="M52.1661 175.354C64.9446 186.899 82.0435 193.318 99.8146 193.243C112.813 192.674 125.141 187.683 134.479 179.211C137.356 176.294 138.922 172.454 138.855 168.487C138.599 159.878 135.964 151.478 131.204 144.103C126.445 136.729 119.724 130.632 111.696 126.407C81.9042 111.128 50.7255 116.432 17.0034 127.405C24.7987 145.616 36.8064 161.99 52.1661 175.354Z" fill="url(#paint2_linear_61_26)"/>
<path d="M52.1127 238.25C68.644 244.316 87.056 244.107 103.425 237.668C115.221 232.482 124.578 223.44 129.73 212.247C131.195 208.517 131.068 204.403 129.375 200.758C125.647 192.895 119.793 186.074 112.39 180.966C104.987 175.859 96.2883 172.641 87.1509 171.63C53.3577 168.304 26.7856 184.365 0 206.544C14.6391 220.596 32.4403 231.427 52.1127 238.25Z" fill="url(#paint3_linear_61_26)"/>
<path d="M77.6888 296.324C95.463 295.999 112.397 289.191 124.875 277.354C133.649 268.323 138.605 256.616 138.819 244.418C138.66 240.453 136.877 236.697 133.839 233.927C127.179 227.995 118.978 223.792 110.047 221.734C101.116 219.675 91.7642 219.832 82.9179 222.189C50.3519 231.167 32.3348 255.657 16.7188 285.767C35.9475 293.486 56.778 297.093 77.6888 296.324Z" fill="url(#paint4_linear_61_26)"/>
<path d="M124.999 340.865C141.308 334.145 154.171 321.745 160.856 306.3C165.288 294.815 165.092 282.213 160.304 270.853C158.536 267.246 155.352 264.413 151.411 262.939C142.825 259.858 133.526 258.926 124.436 260.236C115.346 261.545 106.779 265.05 99.5832 270.404C73.1534 290.356 66.5014 319.501 64.3315 352.936C85.2635 353.187 105.991 349.063 124.999 340.865Z" fill="url(#paint5_linear_61_26)"/>
<path d="M186.841 364.99C199.137 352.934 205.953 336.89 205.854 320.232C205.265 308.043 199.948 296.471 190.896 287.679C187.804 284.975 183.711 283.497 179.478 283.556C170.289 283.815 161.33 286.304 153.481 290.779C145.633 295.253 139.164 301.559 134.71 309.076C118.454 337.058 124.146 366.32 135.778 397.992C155.19 390.639 172.626 379.37 186.841 364.99Z" fill="url(#paint6_linear_61_26)"/>
<path d="M253.876 365.039C260.362 349.5 260.139 332.213 253.254 316.824C247.761 305.774 238.132 296.986 226.183 292.118C222.222 290.739 217.843 290.846 213.965 292.417C205.565 295.963 198.292 301.483 192.853 308.438C187.414 315.393 183.994 323.546 182.928 332.103C179.371 363.792 196.499 388.781 220.154 413.87C235.108 400.116 246.624 383.441 253.876 365.039Z" fill="url(#paint7_linear_61_26)"/>
<path d="M315.7 341.031C315.374 324.37 308.129 308.48 295.495 296.723C285.899 288.501 273.419 283.842 260.404 283.622C256.174 283.77 252.171 285.445 249.234 288.294C242.913 294.578 238.443 302.286 236.261 310.667C234.079 319.048 234.259 327.814 236.784 336.11C246.353 366.685 272.356 383.611 304.495 398.275C312.704 380.201 316.531 360.652 315.7 341.031Z" fill="url(#paint8_linear_61_26)"/>
<path d="M363.099 296.607C356.003 281.349 342.829 269.274 326.371 262.939C314.149 258.776 300.716 258.959 288.63 263.455C284.78 265.104 281.765 268.084 280.217 271.768C276.926 279.829 275.929 288.551 277.322 297.081C278.715 305.61 282.452 313.656 288.167 320.432C309.51 345.254 340.458 351.506 376.065 353.534C376.292 333.896 371.864 314.455 363.099 296.607Z" fill="url(#paint9_linear_61_26)"/>
<path d="M388.782 238.533C376.006 226.982 358.907 220.556 341.133 220.626C328.135 221.196 315.807 226.186 306.469 234.659C303.593 237.576 302.026 241.415 302.093 245.382C302.344 253.999 304.98 262.407 309.743 269.788C314.506 277.169 321.234 283.27 329.27 287.496C359.062 302.775 390.24 297.471 423.962 286.498C416.164 268.28 404.15 251.9 388.782 238.533Z" fill="url(#paint10_linear_61_26)"/>
<path d="M388.835 175.637C372.292 169.539 353.85 169.748 337.469 176.218C325.674 181.404 316.316 190.447 311.164 201.64C309.688 205.365 309.802 209.479 311.484 213.128C315.213 220.999 321.071 227.827 328.481 232.937C335.891 238.048 344.598 241.266 353.744 242.273C387.537 245.599 414.109 229.521 440.894 207.359C426.273 193.307 408.49 182.471 388.835 175.637Z" fill="url(#paint11_linear_61_26)"/>
<path d="M363.277 117.529C345.527 117.861 328.595 124.678 316.127 136.499C307.32 145.517 302.359 157.242 302.183 169.452C302.341 173.416 304.124 177.172 307.163 179.943C313.822 185.874 322.024 190.078 330.955 192.136C339.886 194.195 349.237 194.038 358.084 191.681C390.65 182.703 408.667 158.213 424.283 128.103C405.045 120.373 384.201 116.76 363.277 117.529Z" fill="url(#paint12_linear_61_26)"/>
<path d="M315.967 73.0212C299.674 79.7221 286.814 92.0899 280.11 107.503C275.677 118.989 275.873 131.59 280.662 142.95C282.43 146.557 285.614 149.39 289.555 150.864C298.139 153.934 307.432 154.857 316.516 153.542C325.599 152.227 334.158 148.72 341.347 143.366C367.706 123.414 374.447 94.3024 376.599 60.8676C355.672 60.6473 334.957 64.7996 315.967 73.0212Z" fill="url(#paint13_linear_61_26)"/>
<path d="M254.107 48.8969C241.791 60.945 234.956 76.9899 235.041 93.654C235.61 105.841 240.928 117.412 249.981 126.208C253.073 128.911 257.166 130.389 261.4 130.331C270.605 130.084 279.584 127.599 287.449 123.121C295.315 118.643 301.797 112.326 306.256 104.793C322.512 76.8119 316.82 47.5502 305.188 15.8778C285.754 23.2096 268.306 34.4879 254.107 48.8969Z" fill="url(#paint14_linear_61_26)"/>
<path d="M187.143 48.847C180.657 64.3866 180.88 81.6736 187.766 97.0623C193.262 108.106 202.89 116.888 214.836 121.752C218.797 123.131 223.176 123.024 227.055 121.453C235.454 117.906 242.728 112.387 248.167 105.432C253.606 98.4771 257.025 90.3238 258.091 81.7664C261.648 50.0774 244.521 25.0886 220.865 0C205.909 13.7587 194.393 30.4394 187.143 48.847Z" fill="url(#paint15_linear_61_26)"/>
<path d="M152.438 206.815C152.438 189.741 159.602 173.366 172.355 161.292C185.107 149.218 202.403 142.436 220.438 142.436C238.473 142.436 255.769 149.218 268.521 161.292C281.274 173.366 288.438 189.741 288.438 206.815C288.438 223.89 281.274 240.265 268.521 252.339C255.769 264.412 238.473 271.195 220.438 271.195C202.403 271.195 185.107 264.412 172.355 252.339C159.602 240.265 152.438 223.89 152.438 206.815ZM202.455 179.429C200.436 180.485 199.188 182.522 199.188 184.685V228.946C199.188 231.134 200.436 233.146 202.455 234.202C204.474 235.258 206.918 235.233 208.91 234.076L247.16 211.946C249.046 210.839 250.215 208.903 250.215 206.79C250.215 204.678 249.046 202.741 247.16 201.635L208.91 179.504C206.944 178.373 204.474 178.322 202.455 179.378V179.429Z" fill="url(#paint16_linear_61_26)"/>
<defs>
<linearGradient id="paint0_linear_61_26" x1="-0.462606" y1="416.031" x2="414.243" y2="-27.6071" gradientUnits="userSpaceOnUse">
<stop stop-color="#0A00B2" stop-opacity="0.65"/>
<stop offset="0.5" stop-color="#FF0000" stop-opacity="0.65"/>
<stop offset="1" stop-color="#FFFC00" stop-opacity="0.65"/>
</linearGradient>
<linearGradient id="paint1_linear_61_26" x1="-0.462286" y1="416.031" x2="414.243" y2="-27.6071" gradientUnits="userSpaceOnUse">
<stop stop-color="#0A00B2" stop-opacity="0.65"/>
<stop offset="0.5" stop-color="#FF0000" stop-opacity="0.65"/>
<stop offset="1" stop-color="#FFFC00" stop-opacity="0.65"/>
</linearGradient>
<linearGradient id="paint2_linear_61_26" x1="-0.462337" y1="416.031" x2="414.243" y2="-27.6071" gradientUnits="userSpaceOnUse">
<stop stop-color="#0A00B2" stop-opacity="0.65"/>
<stop offset="0.5" stop-color="#FF0000" stop-opacity="0.65"/>
<stop offset="1" stop-color="#FFFC00" stop-opacity="0.65"/>
</linearGradient>
<linearGradient id="paint3_linear_61_26" x1="-0.462425" y1="416.031" x2="414.243" y2="-27.607" gradientUnits="userSpaceOnUse">
<stop stop-color="#0A00B2" stop-opacity="0.65"/>
<stop offset="0.5" stop-color="#FF0000" stop-opacity="0.65"/>
<stop offset="1" stop-color="#FFFC00" stop-opacity="0.65"/>
</linearGradient>
<linearGradient id="paint4_linear_61_26" x1="-0.462424" y1="416.031" x2="414.243" y2="-27.607" gradientUnits="userSpaceOnUse">
<stop stop-color="#0A00B2" stop-opacity="0.65"/>
<stop offset="0.5" stop-color="#FF0000" stop-opacity="0.65"/>
<stop offset="1" stop-color="#FFFC00" stop-opacity="0.65"/>
</linearGradient>
<linearGradient id="paint5_linear_61_26" x1="-0.462489" y1="416.031" x2="414.243" y2="-27.6071" gradientUnits="userSpaceOnUse">
<stop stop-color="#0A00B2" stop-opacity="0.65"/>
<stop offset="0.5" stop-color="#FF0000" stop-opacity="0.65"/>
<stop offset="1" stop-color="#FFFC00" stop-opacity="0.65"/>
</linearGradient>
<linearGradient id="paint6_linear_61_26" x1="-0.462411" y1="416.031" x2="414.243" y2="-27.6071" gradientUnits="userSpaceOnUse">
<stop stop-color="#0A00B2" stop-opacity="0.65"/>
<stop offset="0.5" stop-color="#FF0000" stop-opacity="0.65"/>
<stop offset="1" stop-color="#FFFC00" stop-opacity="0.65"/>
</linearGradient>
<linearGradient id="paint7_linear_61_26" x1="-0.462262" y1="416.031" x2="414.243" y2="-27.6071" gradientUnits="userSpaceOnUse">
<stop stop-color="#0A00B2" stop-opacity="0.65"/>
<stop offset="0.5" stop-color="#FF0000" stop-opacity="0.65"/>
<stop offset="1" stop-color="#FFFC00" stop-opacity="0.65"/>
</linearGradient>
<linearGradient id="paint8_linear_61_26" x1="-0.462226" y1="416.031" x2="414.243" y2="-27.6071" gradientUnits="userSpaceOnUse">
<stop stop-color="#0A00B2" stop-opacity="0.65"/>
<stop offset="0.5" stop-color="#FF0000" stop-opacity="0.65"/>
<stop offset="1" stop-color="#FFFC00" stop-opacity="0.65"/>
</linearGradient>
<linearGradient id="paint9_linear_61_26" x1="-0.46238" y1="416.031" x2="414.243" y2="-27.6071" gradientUnits="userSpaceOnUse">
<stop stop-color="#0A00B2" stop-opacity="0.65"/>
<stop offset="0.5" stop-color="#FF0000" stop-opacity="0.65"/>
<stop offset="1" stop-color="#FFFC00" stop-opacity="0.65"/>
</linearGradient>
<linearGradient id="paint10_linear_61_26" x1="-0.462584" y1="416.031" x2="414.243" y2="-27.6071" gradientUnits="userSpaceOnUse">
<stop stop-color="#0A00B2" stop-opacity="0.65"/>
<stop offset="0.5" stop-color="#FF0000" stop-opacity="0.65"/>
<stop offset="1" stop-color="#FFFC00" stop-opacity="0.65"/>
</linearGradient>
<linearGradient id="paint11_linear_61_26" x1="-0.462708" y1="416.031" x2="414.242" y2="-27.6071" gradientUnits="userSpaceOnUse">
<stop stop-color="#0A00B2" stop-opacity="0.65"/>
<stop offset="0.5" stop-color="#FF0000" stop-opacity="0.65"/>
<stop offset="1" stop-color="#FFFC00" stop-opacity="0.65"/>
</linearGradient>
<linearGradient id="paint12_linear_61_26" x1="-0.462215" y1="416.031" x2="414.243" y2="-27.607" gradientUnits="userSpaceOnUse">
<stop stop-color="#0A00B2" stop-opacity="0.65"/>
<stop offset="0.5" stop-color="#FF0000" stop-opacity="0.65"/>
<stop offset="1" stop-color="#FFFC00" stop-opacity="0.65"/>
</linearGradient>
<linearGradient id="paint13_linear_61_26" x1="-0.462396" y1="416.031" x2="414.243" y2="-27.6072" gradientUnits="userSpaceOnUse">
<stop stop-color="#0A00B2" stop-opacity="0.65"/>
<stop offset="0.5" stop-color="#FF0000" stop-opacity="0.65"/>
<stop offset="1" stop-color="#FFFC00" stop-opacity="0.65"/>
</linearGradient>
<linearGradient id="paint14_linear_61_26" x1="-0.462281" y1="416.031" x2="414.243" y2="-27.6071" gradientUnits="userSpaceOnUse">
<stop stop-color="#0A00B2" stop-opacity="0.65"/>
<stop offset="0.5" stop-color="#FF0000" stop-opacity="0.65"/>
<stop offset="1" stop-color="#FFFC00" stop-opacity="0.65"/>
</linearGradient>
<linearGradient id="paint15_linear_61_26" x1="-0.462452" y1="416.031" x2="414.243" y2="-27.6071" gradientUnits="userSpaceOnUse">
<stop stop-color="#0A00B2" stop-opacity="0.65"/>
<stop offset="0.5" stop-color="#FF0000" stop-opacity="0.65"/>
<stop offset="1" stop-color="#FFFC00" stop-opacity="0.65"/>
</linearGradient>
<linearGradient id="paint16_linear_61_26" x1="220.438" y1="142.436" x2="220.438" y2="271.195" gradientUnits="userSpaceOnUse">
<stop stop-color="#C24D00"/>
<stop offset="1" stop-color="#FF6600"/>
</linearGradient>
</defs>
</svg>
